<svg xmlns="http://www.w3.org/2000/svg" width="39" height="39" fill="none"><path fill="#181818" d="M30.782 7.832C27.65 4.702 23.527 3 19.13 3c-4.398 0-8.52 1.702-11.653 4.832-3.133 3.13-4.837 7.248-4.837 11.64 0 3.021.824 5.986 2.363 8.567L2.64 35.122c-.055.22 0 .494.165.659.11.11.274.219.44.219.054 0 .164 0 .219-.055l7.09-2.36a16.787 16.787 0 0 0 8.575 2.36c4.398 0 8.52-1.702 11.653-4.832 3.133-3.13 4.837-7.247 4.837-11.64 0-4.393-1.704-8.511-4.837-11.641Zm-2.418 15.869c0 .22-.11.44-.33.55a.7.7 0 0 1-.66 0l-4.232-2.636v2.47a.635.635 0 0 1-.66.66H10.556a.635.635 0 0 1-.66-.66V14.86c0-.384.275-.658.66-.658h11.928c.384 0 .659.274.659.659v2.47l4.232-2.635a.7.7 0 0 1 .66 0c.22.11.33.33.33.549v8.456Z"/></svg>