<svg xmlns="http://www.w3.org/2000/svg" width="39" height="39" fill="none"><path fill="#181818" d="M34.819 16.545V26.91c-.002.687-.402 1.346-1.114 1.831-.713.486-1.679.76-2.686.76h-7.862c-.414 0-.802-.138-1.038-.37l-2.5-2.44-2.5 2.44c-.237.232-.625.37-1.039.37H8.22c-1.008 0-1.974-.274-2.686-.76-.712-.485-1.113-1.144-1.114-1.831V16.545c.001-.687.402-1.345 1.114-1.83.712-.487 1.678-.76 2.686-.76h22.8c1.007 0 1.973.273 2.685.76.712.485 1.113 1.143 1.114 1.83ZM1.886 19.136c-.336 0-.658.091-.896.253-.237.162-.37.382-.37.61v5.183c0 .308.24.593.632.748.392.154.875.154 1.267 0 .392-.155.634-.44.634-.748V20c0-.23-.134-.449-.372-.61a1.61 1.61 0 0 0-.895-.254Zm35.466 0c-.335 0-.658.091-.895.253-.238.162-.371.382-.371.61v5.183c0 .308.241.593.633.748.392.154.875.154 1.267 0 .392-.155.633-.44.633-.748V20c0-.23-.133-.449-.371-.61a1.61 1.61 0 0 0-.896-.254Zm-8.3-7.204c-.313-.431-.798-.794-1.399-1.047a5.166 5.166 0 0 0-2-.385H13.586a5.166 5.166 0 0 0-2 .385c-.6.253-1.086.616-1.4 1.047l-.216.295h19.3l-.217-.295Z"/></svg>