<svg xmlns="http://www.w3.org/2000/svg" width="39" height="39" fill="none"><path fill="#181818" fill-rule="evenodd" d="M24.72 3.5h10.4c1.134 0 2 .867 2.068 2v28c0 1.133-.867 2-2 2H24.72c-.545 0-1.028-.2-1.383-.534h.452c.991-.001 1.941-.292 2.642-.81.7-.518 1.186-1.22 1.187-1.953v-8.795c-.001-.733-.487-1.436-1.188-1.953-.7-.518-1.65-.81-2.641-.81h-1.07V5.5c0-1.133.867-2 2-2Zm4.067 27.067c0 .6.534 1.133 1.134 1.133.6 0 1.133-.467 1.133-1.133 0-.6-.533-1.134-1.133-1.134s-1.134.534-1.134 1.134Zm-.666-4.6c0 1 .8 1.8 1.8 1.8s1.8-.8 1.8-1.8-.8-1.8-1.8-1.8-1.8.8-1.8 1.8Zm-3.2-9.4h10v-1.8h-10v1.8Zm0-3.6h10v-1.8h-10v1.8Zm0-3.667h10V7.5h-10v1.8Z" clip-rule="evenodd"/><path fill="#181818" d="M26.035 23.936v7.606c0 .504-.294.987-.817 1.344-.523.356-1.232.557-1.971.557h-5.77c-.303 0-.588-.1-.762-.27l-1.834-1.792-1.835 1.791c-.174.17-.458.272-.762.271h-5.77c-.739 0-1.448-.2-1.97-.557-.523-.357-.817-.84-.818-1.344v-7.606c0-.504.295-.987.818-1.343.522-.357 1.231-.557 1.97-.558h16.732c.74 0 1.449.201 1.971.558.523.356.817.84.818 1.343ZM1.867 25.838c-.246 0-.483.066-.657.185-.175.12-.272.28-.272.449v3.802c0 .227.177.436.464.55.288.112.642.112.93 0 .287-.114.465-.323.465-.55v-3.802c0-.169-.098-.33-.273-.449a1.182 1.182 0 0 0-.657-.185Zm19.937-5.287c-.23-.316-.586-.583-1.027-.768a3.792 3.792 0 0 0-1.468-.283h-8.857a3.792 3.792 0 0 0-1.467.282c-.44.186-.797.453-1.027.769l-.159.217h14.164l-.16-.217Z"/></svg>