<svg width="50" height="50" viewBox="0 0 50 50" fill="none" xmlns="http://www.w3.org/2000/svg">
<g clip-path="url(#clip0_740_3495)">
<path d="M28.6358 21.6729C29.5573 22.5943 30.0215 23.7086 30.0215 25.0157C30.0215 26.3229 29.5573 27.43 28.6358 28.3586C27.7144 29.28 26.593 29.7443 25.2644 29.7443C23.9572 29.7443 22.843 29.28 21.9215 28.3586C21.0001 27.4372 20.543 26.3229 20.543 25.0157C20.543 23.7086 21.0073 22.5943 21.9215 21.6729C22.843 20.7514 23.9644 20.2872 25.2644 20.2872C26.593 20.2872 27.7144 20.7514 28.6358 21.6729Z" fill="#E81E63"/>
<path d="M25.2359 15.4015C19.9287 15.4015 15.6216 19.7086 15.6216 25.0158C15.6216 30.3229 19.9287 34.63 25.2359 34.63C30.543 34.63 34.8502 30.33 34.8502 25.0158C34.8502 19.7086 30.543 15.4015 25.2359 15.4015ZM29.993 32.7229V31.0086C28.5073 32.1586 26.9144 32.73 25.2216 32.73C23.1073 32.73 21.293 31.98 19.7859 30.4658C18.2716 28.9515 17.5216 27.1443 17.5216 25.03C17.5216 22.8943 18.2716 21.08 19.7859 19.5657C21.293 18.0515 23.1073 17.3015 25.2216 17.3015C27.3573 17.3015 29.1787 18.0515 30.6859 19.5657C32.2002 21.08 32.9502 22.8943 32.9502 25.03V29.7729C32.193 30.9657 31.1787 31.9729 29.993 32.7229Z" fill="#E81E63"/>
<path d="M38.9426 16.9157C40.489 16.9157 41.7426 15.6621 41.7426 14.1157C41.7426 12.5693 40.489 11.3157 38.9426 11.3157C37.3962 11.3157 36.1426 12.5693 36.1426 14.1157C36.1426 15.6621 37.3962 16.9157 38.9426 16.9157Z" fill="#E81E63"/>
<path d="M39.6643 36.1943L38.9429 35.6372C41.3214 32.5729 42.5786 28.9015 42.5786 25.0157C42.5786 21.13 41.3214 17.4586 38.9429 14.3943L39.6643 13.8372C42.1643 17.0586 43.4857 20.93 43.4857 25.0157C43.4857 29.1086 42.1643 32.9729 39.6643 36.1943Z" fill="#E81E63"/>
<path d="M11.1784 38.6729C12.7248 38.6729 13.9784 37.4193 13.9784 35.8729C13.9784 34.3265 12.7248 33.0729 11.1784 33.0729C9.63202 33.0729 8.37842 34.3265 8.37842 35.8729C8.37842 37.4193 9.63202 38.6729 11.1784 38.6729Z" fill="#E81E63"/>
<path d="M10.8214 36.1515C8.32143 32.93 7 29.0586 7 24.9729C7 20.88 8.32143 17.0157 10.8214 13.7943L11.5429 14.3515C9.16429 17.4157 7.90714 21.0872 7.90714 24.9729C7.90714 28.8586 9.16429 32.53 11.5429 35.5943L10.8214 36.1515Z" fill="#E81E63"/>
</g>
<defs>
<clipPath id="clip0_740_3495">
<rect width="50" height="50" fill="white"/>
</clipPath>
</defs>
</svg>
